<svg width="66" height="41" viewBox="0 0 66 41" fill="none" xmlns="http://www.w3.org/2000/svg">
  <path
    d="M7.79289 19.7929C7.40237 20.1834 7.40237 20.8166 7.79289 21.2071L14.1569 27.5711C14.5474 27.9616 15.1805 27.9616 15.5711 27.5711C15.9616 27.1805 15.9616 26.5474 15.5711 26.1569L9.91421 20.5L15.5711 14.8431C15.9616 14.4526 15.9616 13.8195 15.5711 13.4289C15.1805 13.0384 14.5474 13.0384 14.1569 13.4289L7.79289 19.7929ZM58.2071 21.2071C58.5976 20.8166 58.5976 20.1834 58.2071 19.7929L51.8431 13.4289C51.4526 13.0384 50.8195 13.0384 50.4289 13.4289C50.0384 13.8195 50.0384 14.4526 50.4289 14.8431L56.0858 20.5L50.4289 26.1569C50.0384 26.5474 50.0384 27.1805 50.4289 27.5711C50.8195 27.9616 51.4526 27.9616 51.8431 27.5711L58.2071 21.2071ZM56.5 19.5L8.5 19.5V21.5L56.5 21.5V19.5ZM57.5 19.5L9.5 19.5V21.5L57.5 21.5V19.5ZM0.5 40.5H-1.5C-1.5 41.6046 -0.60457 42.5 0.5 42.5L0.5 40.5ZM0.5 0.5L0.5 -1.5C-0.60457 -1.5 -1.5 -0.604568 -1.5 0.5H0.5ZM65.5 0.5H67.5C67.5 -0.604568 66.6046 -1.5 65.5 -1.5V0.5ZM65.5 40.5V42.5C66.6046 42.5 67.5 41.6046 67.5 40.5H65.5ZM2.5 40.5L2.5 0.5H-1.5L-1.5 40.5H2.5ZM0.5 2.5L65.5 2.5V-1.5L0.5 -1.5L0.5 2.5ZM63.5 0.5V40.5H67.5V0.5H63.5ZM65.5 38.5L0.5 38.5L0.5 42.5L65.5 42.5V38.5Z"
    fill="currentColor"
  />
</svg>
