<svg width="40" height="65" viewBox="0 0 40 65" fill="none" xmlns="http://www.w3.org/2000/svg">
  <path
    d="M20.7071 7.29289C20.3166 6.90237 19.6834 6.90237 19.2929 7.29289L12.9289 13.6569C12.5384 14.0474 12.5384 14.6805 12.9289 15.0711C13.3195 15.4616 13.9526 15.4616 14.3431 15.0711L20 9.41421L25.6569 15.0711C26.0474 15.4616 26.6805 15.4616 27.0711 15.0711C27.4616 14.6805 27.4616 14.0474 27.0711 13.6569L20.7071 7.29289ZM19.2929 57.7071C19.6834 58.0976 20.3166 58.0976 20.7071 57.7071L27.0711 51.3431C27.4616 50.9526 27.4616 50.3195 27.0711 49.9289C26.6805 49.5384 26.0474 49.5384 25.6569 49.9289L20 55.5858L14.3431 49.9289C13.9526 49.5384 13.3195 49.5384 12.9289 49.9289C12.5384 50.3195 12.5384 50.9526 12.9289 51.3431L19.2929 57.7071ZM21 56V8H19V56H21ZM21 57V9H19V57H21ZM0 0V-2C-1.10457 -2 -2 -1.10457 -2 0L0 0ZM40 0H42C42 -1.10457 41.1046 -2 40 -2V0ZM40 65V67C41.1046 67 42 66.1046 42 65H40ZM0 65H-2C-2 66.1046 -1.10457 67 0 67L0 65ZM0 2H40V-2H0V2ZM38 0V65H42V0H38ZM40 63H0V67H40V63ZM2 65V0H-2V65H2Z"
    fill="currentColor"
  />
</svg>
